<?xml version="1.0" standalone="no"?>
<!DOCTYPE svg PUBLIC "-//W3C//DTD SVG 20010904//EN"
 "http://www.w3.org/TR/2001/REC-SVG-20010904/DTD/svg10.dtd">
<svg version="1.0" xmlns="http://www.w3.org/2000/svg"
 width="1900.000000pt" height="600.000000pt" viewBox="0 0 1900.000000 600.000000"
 preserveAspectRatio="xMidYMid meet">

<g transform="translate(0.000000,600.000000) scale(0.100000,-0.100000)"
fill="#bb1655" stroke="none">
<path d="M0 3630 l0 -2370 27 -11 c48 -18 165 -49 298 -79 964 -214 2307 -158
3770 156 1375 296 2835 800 4500 1554 597 271 883 386 1315 530 2061 688 4084
673 6015 -42 1076 -399 2121 -1035 2928 -1782 l147 -137 0 2276 0 2275 -9500
0 -9500 0 0 -2370z"/>
</g>
</svg>
