<?xml version="1.0" standalone="no"?>
<!DOCTYPE svg PUBLIC "-//W3C//DTD SVG 20010904//EN"
 "http://www.w3.org/TR/2001/REC-SVG-20010904/DTD/svg10.dtd">
<svg version="1.0" xmlns="http://www.w3.org/2000/svg"
 width="1900.000000pt" height="378.000000pt" viewBox="0 0 1900.000000 378.000000"
 preserveAspectRatio="xMidYMid meet">

<g transform="translate(0.000000,378.000000) scale(0.100000,-0.100000)"
fill="#bb1655" stroke="none">
<path d="M0 2401 l0 -1379 22 -4 c13 -3 95 -21 183 -41 1089 -247 2440 -245
3945 4 897 148 1772 363 2785 686 442 140 865 291 1580 561 1822 689 3850 885
6025 581 1475 -206 3084 -665 4342 -1240 59 -27 110 -49 113 -49 3 0 5 509 5
1130 l0 1130 -9500 0 -9500 0 0 -1379z"/>
</g>
</svg>
